<svg xmlns="http://www.w3.org/2000/svg" version="1.0" viewBox="0 0 512 512"><path d="M186.3 133.9c-6.5 2.4-13.4 7.1-17.2 11.9-1.7 2-20.1 30.5-41 63.2s-52 81.4-69 108.1c-34.4 53.9-34 53.1-28.1 59l3 3 26.7-.3c40.7-.5 37.1 2.3 75.8-58.1 15.2-23.8 46.6-72.7 69.8-108.7 40.3-62.8 42.1-65.7 42.1-70.3.1-4.1-.3-5.2-2.7-7.3l-2.8-2.4h-25.7c-22.5.1-26.3.3-30.9 1.9zm141.2-.3c-8.1 2-20.8 8.3-27.6 13.8-9.1 7.3-2.9-2-102.9 154.8-25.7 40.3-26.5 42-23.7 53.3 2.8 11.1 10.6 19.7 20.7 22.6 2.3.6 48.8.9 136.5.7l133-.3 4-2.2c5.2-2.8 10-7.5 13.3-13.2l2.7-4.6.3-101.9.2-101.8-2.3-5.2c-3.4-7.4-7-11.1-13.9-14.5l-6.1-3.1-64.1.1c-52.3.1-65.2.3-70.1 1.5z"/></svg>